<svg xmlns="http://www.w3.org/2000/svg" viewBox="0 0 64 64">
   <g id="expanded_icons" data-name="expanded icons">
      <path d="M37.3027,40.4175c-1.5664,0-3.081-.43-3.7373-1.9673l-.0019-.0054c-.2158-.5112-5.2022-12.603.9443-20.5732,4.5449-5.8926,13.8408-7.8833,27.627-5.9112l.0068.001a1,1,0,0,1,.3076,1.8833,31.592,31.592,0,0,0-2.3125,4.6084c-.1338.2974-.2324.5147-.2793.6109a34.3365,34.3365,0,0,0-3.0029,8.602l-.0391.2027c-.4072,2.1323-.8281,4.3378-2.539,6.0834a14.5248,14.5248,0,0,1-3.9883,2.6988,38.99,38.99,0,0,1-9.0371,3.1748l-.3594.08A16.7041,16.7041,0,0,1,37.3027,40.4175Zm-1.8965-2.75c.56,1.3,3.7032.5893,5.0459.2876l.3731-.0835A36.9833,36.9833,0,0,0,49.3975,34.86a12.706,12.706,0,0,0,3.4511-2.3081c1.2881-1.314,1.6348-3.1329,2.002-5.0581l.039-.2037a36.3033,36.3033,0,0,1,3.17-9.1015c.042-.0874.1318-.2862.2549-.5581.8144-1.8042,1.4082-3.0537,1.8759-3.9112-12.0947-1.4824-20.2021.3213-24.0986,5.3736C30.6494,26.1489,35.208,37.1968,35.4062,37.6675ZM61.8584,13.9409h0l.0127.002-.0127-.002Z"/><path d="M19.2344,42.9648a13.2587,13.2587,0,0,1-6.0108-1.395A7.3312,7.3312,0,0,1,10.87,39.8423a9.6038,9.6038,0,0,1-1.1777-1.8506c-.2246-.4238-.501-1.021-.8242-1.72C7.5605,33.4375,4.8643,27.5405,2.21,28.1a1,1,0,0,1-.9639-1.6348c.4277-.49,13.4111-7.852,21.8115-4.2646,5.2539,2.2436,7.4942,8.0732,6.6572,17.3266-.05.5459-.1523,1.6812-7.2607,3.106A16.3508,16.3508,0,0,1,19.2344,42.9648ZM4.7793,26.7275c2.6387,1.6289,4.5986,5.8755,5.9053,8.7061.3037.6587.5634,1.2222.7754,1.6216a7.9366,7.9366,0,0,0,.9228,1.4785,5.4442,5.4442,0,0,0,1.7354,1.248,12.0775,12.0775,0,0,0,7.9433.8907,30.5047,30.5047,0,0,0,5.69-1.6446c.63-7.5752-.9365-12.4809-4.66-14.5844C17.7217,21.4111,8.8828,24.75,4.7793,26.7275Z"/><path d="M32.3555,52.7773a1.0771,1.0771,0,0,1-.1182-.0068,1,1,0,0,1-.8779-1.0952c.0078-.0767.0293-.28.0683-.5913,1.27-13.3814-16.748-20.9151-16.9326-20.9907a1,1,0,1,1,.7578-1.8506c.6748.2759,13.78,5.7632,17.3516,16.1352C34.3984,36.3315,38.5117,24.082,47.3,20.5234a1,1,0,1,1,.75,1.8536c-11.1016,4.496-14.21,25.6-14.6445,29.0317-.0176.166-.0371.3335-.06.501A1.0006,1.0006,0,0,1,32.3555,52.7773Z"/>
   </g>
</svg>