<svg xmlns="http://www.w3.org/2000/svg">
   <!--shipping sprite-->
   <symbol id="shipping" viewBox="0 0 30 30">
      <path d="M15.48 12c-.13.004-.255.058-.347.152l-2.638 2.63-1.625-1.62c-.455-.474-1.19.258-.715.712l1.983 
      1.978c.197.197.517.197.715 0l2.995-2.987c.33-.32.087-.865-.367-.865zM.5 16h3c.277 0 
      .5.223.5.5s-.223.5-.5.5h-3c-.277 0-.5-.223-.5-.5s.223-.5.5-.5zm0-4h3c.277 
      0 .5.223.5.5s-.223.5-.5.5h-3c-.277 0-.5-.223-.5-.5s.223-.5.5-.5zm0-4h3c.277 
      0 .5.223.5.5s-.223.5-.5.5h-3C.223 9 0 8.777 0 8.5S.223 8 .5 8zm24 11c-1.375 
      0-2.5 1.125-2.5 2.5s1.125 2.5 2.5 2.5 2.5-1.125 2.5-2.5-1.125-2.5-2.5-2.5zm0 
      1c.834 0 1.5.666 1.5 1.5s-.666 1.5-1.5 1.5-1.5-.666-1.5-1.5.666-1.5 1.5-1.5zm-13-1C10.125 
      19 9 20.125 9 21.5s1.125 2.5 2.5 2.5 2.5-1.125 2.5-2.5-1.125-2.5-2.5-2.5zm0 1c.834 0 1.5.666 
      1.5 1.5s-.666 1.5-1.5 1.5-1.5-.666-1.5-1.5.666-1.5 1.5-1.5zm-5-14C5.678 6 5 6.678 5 7.5v11c0 
      .822.678 1.5 1.5 1.5h2c.676.01.676-1.01 0-1h-2c-.286 0-.5-.214-.5-.5v-11c0-.286.214-.5.5-.5h13c.286 
      0 .5.214.5.5V19h-5.5c-.66 0-.648 1.01 0 1h7c.66 0 .654-1 
      0-1H21v-9h4.227L29 15.896V18.5c0 .286-.214.5-.5.5h-1c-.654 0-.654 1 0 
      1h1c.822 0 1.5-.678 1.5-1.5v-2.75c0-.095-.027-.19-.078-.27l-4-6.25c-.092-.143-.25-.23-.42
      2-.23H21V7.5c0-.822-.678-1.5-1.5-1.5z"/>
   </symbol>
   <!--flowers sprite-->
   <symbol id="flowers" viewBox="0 0 64 64">
      <g id="expanded_icons" data-name="expanded icons">
         <path d="M37.3027,40.4175c-1.5664,0-3.081-.43-3.7373-1.9673l-.0019-.0054c-.2158-.5112-5.2022-12.603.9443-20.5732,4.5449-5.8926,13.8408-7.8833,27.627-5.9112l.0068.001a1,1,0,0,1,.3076,1.8833,31.592,31.592,0,0,0-2.3125,4.6084c-.1338.2974-.2324.5147-.2793.6109a34.3365,34.3365,0,0,0-3.0029,8.602l-.0391.2027c-.4072,2.1323-.8281,4.3378-2.539,6.0834a14.5248,14.5248,0,0,1-3.9883,2.6988,38.99,38.99,0,0,1-9.0371,3.1748l-.3594.08A16.7041,16.7041,0,0,1,37.3027,40.4175Zm-1.8965-2.75c.56,1.3,3.7032.5893,5.0459.2876l.3731-.0835A36.9833,36.9833,0,0,0,49.3975,34.86a12.706,12.706,0,0,0,3.4511-2.3081c1.2881-1.314,1.6348-3.1329,2.002-5.0581l.039-.2037a36.3033,36.3033,0,0,1,3.17-9.1015c.042-.0874.1318-.2862.2549-.5581.8144-1.8042,1.4082-3.0537,1.8759-3.9112-12.0947-1.4824-20.2021.3213-24.0986,5.3736C30.6494,26.1489,35.208,37.1968,35.4062,37.6675ZM61.8584,13.9409h0l.0127.002-.0127-.002Z"/><path d="M19.2344,42.9648a13.2587,13.2587,0,0,1-6.0108-1.395A7.3312,7.3312,0,0,1,10.87,39.8423a9.6038,9.6038,0,0,1-1.1777-1.8506c-.2246-.4238-.501-1.021-.8242-1.72C7.5605,33.4375,4.8643,27.5405,2.21,28.1a1,1,0,0,1-.9639-1.6348c.4277-.49,13.4111-7.852,21.8115-4.2646,5.2539,2.2436,7.4942,8.0732,6.6572,17.3266-.05.5459-.1523,1.6812-7.2607,3.106A16.3508,16.3508,0,0,1,19.2344,42.9648ZM4.7793,26.7275c2.6387,1.6289,4.5986,5.8755,5.9053,8.7061.3037.6587.5634,1.2222.7754,1.6216a7.9366,7.9366,0,0,0,.9228,1.4785,5.4442,5.4442,0,0,0,1.7354,1.248,12.0775,12.0775,0,0,0,7.9433.8907,30.5047,30.5047,0,0,0,5.69-1.6446c.63-7.5752-.9365-12.4809-4.66-14.5844C17.7217,21.4111,8.8828,24.75,4.7793,26.7275Z"/><path d="M32.3555,52.7773a1.0771,1.0771,0,0,1-.1182-.0068,1,1,0,0,1-.8779-1.0952c.0078-.0767.0293-.28.0683-.5913,1.27-13.3814-16.748-20.9151-16.9326-20.9907a1,1,0,1,1,.7578-1.8506c.6748.2759,13.78,5.7632,17.3516,16.1352C34.3984,36.3315,38.5117,24.082,47.3,20.5234a1,1,0,1,1,.75,1.8536c-11.1016,4.496-14.21,25.6-14.6445,29.0317-.0176.166-.0371.3335-.06.501A1.0006,1.0006,0,0,1,32.3555,52.7773Z"/>
      </g>
   </symbol>
   <!--services sprite-->
   <symbol id="services" viewBox="0 0 64 64">
      <g id="XMLID_1_">
         <path id="XMLID_48_" d="M60,27.3c-1-1.5-2.8-2.3-4.6-2.3H34.9c0.6-3,0.7-6.3,0.6-8.1c-0.1-2.3-0.4-3.6-0.5-4
            c-0.4-2.1-1.5-3.3-2.3-4c-1.1-0.9-2.6-1.3-3.9-1.1c-1.2,0.1-2.4,0.7-3.1,1.6c-0.8,1-1.2,2.3-1.2,3.8c0,0,0,0.1,0,0.1
            c0.4,4-0.6,6.5-1.5,7.9c-0.9,1.4-1.8,1.9-1.9,2c-2.3,1.4-3.8,2.3-4.8,3C15.8,25.6,15,25,14,25H6c-1.6,0-3,1.6-3,3.2v24
            C3,53.8,4.4,55,6,55h8c1.1,0,2.1-0.6,2.6-1.6c0.9,0.9,2,1.7,3.3,2.3c2.3,1,4.3,1.1,4.4,1.1l9.4,0.5c0.3,0.1,0.6,0.1,0.9,0.1l1.4,0
            l0.4,0l0,0l5,0c1,0,2-0.4,2.7-1.1c0.7-0.7,1.1-1.7,1.1-2.7l0-2.4c0-0.6-0.2-1.2-0.5-1.8c1.1-0.7,1.9-1.9,1.9-3.3l0-2.4
            c0-0.6-0.2-1.2-0.5-1.8c0.3-0.2,0.5-0.3,0.7-0.6c0.7-0.7,1.1-1.7,1.1-2.7l0-2.4c0-0.4-0.1-0.9-0.2-1.3l7.5,0h0l0.4,0.1l0,0
            c2.1-0.2,3.6-1.2,4.5-2.7C61.2,30.8,61,28.8,60,27.3z M15,52.7c0,0.1-0.1,0.3-0.3,0.3H6.3C6.1,53,6,52.9,6,52.7V28.3
            C6,28.1,6.1,28,6.3,28h8.5c0.1,0,0.3,0.1,0.3,0.3V52.7z M17,29.3c1-0.6,2.2-1.8,5.4-3.7c0.1,0,1.5-0.8,2.8-2.8
            c0.7-1.1,1.3-2.4,1.6-3.8c0.4-1.7,0.5-3.7,0.3-5.7c-0.1-2.3,1.5-2.7,1.9-2.7c1.4-0.2,3,0.9,3.4,3.1c0,0,0,0.1,0,0.1
            c0,0,0.3,1.2,0.4,3.5c0.1,2.2-0.1,6-1.3,11.2c-0.3,1.1-2,6.7,0.2,9.3c0,0,0,0.1,0.1,0.1c0.3,0.3,0.8,1,0.6,1.5
            c-0.2,0.4-0.8,0.9-1.8,1.2c-1.6,0.6-4.1,0.9-7.3,0.9c-0.6,0-1,0.5-1,1l0,0.6c0,0.3,0.1,0.6,0.3,0.7c0.2,0.2,0.4,0.3,0.7,0.3
            c0,0,0,0,0,0c4.1,0,7-0.6,9-1.5c-0.1,0.4-0.2,0.8-0.2,1.2l0,2.4c0,0.6,0.2,1.2,0.5,1.8c-1.1,0.7-1.9,1.9-1.9,3.3l0,2.4
            c0,0.3,0.1,0.7,0.1,1l-6.5-0.3c0,0-1.6-0.1-3.4-0.8c-2.3-1-4-2.6-4-4.9V29.3z M33.4,53.6l0-2.4c0-0.7,0.5-1.2,1.2-1.2l6.9,0
            c0.7,0,1.2,0.5,1.2,1.2l0,2.4c0,0.3-0.1,0.6-0.4,0.9c-0.2,0.2-0.5,0.4-0.9,0.4l-6.9,0C33.9,54.8,33.4,54.2,33.4,53.6z M42.9,47.3
            l-6.9,0c-0.7,0-1.2-0.5-1.2-1.2l0-2.4c0-0.3,0.1-0.6,0.4-0.8c0.2-0.2,0.5-0.4,0.9-0.4l6.9,0c0.7,0,1.2,0.5,1.2,1.2l0,2.4
            C44.1,46.8,43.5,47.3,42.9,47.3z M44.3,39.9l-6.9,0c-0.3,0-0.6-0.1-0.9-0.4c-0.2-0.2-0.4-0.5-0.4-0.9l0-2.4c0-0.7,0.5-1.2,1.2-1.2
            l6.9,0c0.3,0,0.6,0.1,0.8,0.4c0.2,0.2,0.4,0.5,0.4,0.9l0,2.4c0,0.3-0.1,0.6-0.4,0.8C44.9,39.7,44.6,39.9,44.3,39.9z M43,32.4
            L43,32.4h-5.7c-1.9,0-3.4,1.4-3.7,3.2c-0.2-0.5-0.4-1.5-0.2-3.5c0.2-1.4,0.6-2.6,0.7-3c0,0,0-0.1,0-0.1c0.1-0.4,0.2-1,0.2-1h21
            l0.1,0l0.2,0c1-0.1,1.8,0.3,2.2,1c0.5,0.7,0.5,1.6,0.2,2.3c-0.5,1.1-2,1.2-2.7,1.3L43,32.4z"/>
            <path id="XMLID_56_" d="M10.1,51c1.4,0,2.5-1.1,2.5-2.5S11.5,46,10.1,46s-2.5,1.1-2.5,2.5S8.7,51,10.1,51z M10.1,49.4
               c-0.5,0-0.9-0.4-0.9-0.9s0.4-0.9,0.9-0.9s0.9,0.4,0.9,0.9S10.6,49.4,10.1,49.4z"/>
            <path id="XMLID_57_" d="M40,15.6c0.1,0.2,0.4,0.4,0.6,0.5c0.1,0,0.2,0,0.2,0c0.2,0,0.4,0,0.5-0.1l0.5-0.3c0.5-0.3,0.6-0.9,0.3-1.4
               l-4.3-7.1c-0.3-0.5-0.9-0.6-1.4-0.3L36,7.1c-0.2,0.1-0.4,0.4-0.5,0.6c-0.1,0.3,0,0.5,0.1,0.8L40,15.6z"/>
            <path id="XMLID_58_" d="M44.3,15.8l0.6,0.2c0.1,0,0.2,0,0.3,0c0.4,0,0.8-0.3,1-0.7l2-7.1c0.1-0.3,0-0.5-0.1-0.8
               c-0.1-0.2-0.3-0.4-0.6-0.5l-0.6-0.2c-0.5-0.1-1.1,0.2-1.2,0.7l-2,7.1c-0.1,0.3,0,0.5,0.1,0.8C43.8,15.5,44,15.7,44.3,15.8z"/>
            <path id="XMLID_59_" d="M47.3,18.2l0.3,0.5c0.1,0.2,0.4,0.4,0.6,0.4c0.1,0,0.1,0,0.2,0c0.2,0,0.4-0.1,0.6-0.2l7.1-4.7
               c0.2-0.1,0.4-0.4,0.4-0.6s0-0.5-0.1-0.8l-0.3-0.5c-0.3-0.5-0.9-0.6-1.4-0.3l-7.1,4.7C47.2,17.2,47,17.8,47.3,18.2z"/>
            <path id="XMLID_60_" d="M55.7,21.7l-7.1-1.4c-0.5-0.1-1.1,0.2-1.2,0.8l-0.1,0.6c-0.1,0.3,0,0.5,0.1,0.8c0.1,0.2,0.4,0.4,0.6,0.4
               l7.1,1.4c0.1,0,0.1,0,0.2,0c0.5,0,0.9-0.3,1-0.8l0.1-0.6c0.1-0.3,0-0.5-0.1-0.8C56.2,21.9,56,21.8,55.7,21.7z"/>
      </g>
   </symbol>
</svg>